# xmcd
#
# Track frame offsets:
#	150
#	23381
#	36612
#	63489
#	79272
#	90499
#	103656
#	133175
#	150327
#	167561
#	184229
#
# Disc length: 2737 seconds
# Revision: 0
# Processed by: cddbd v1.5.2PL0 Copyright (c) Steve Scherf et al.
# Submitted via: dBpowerAMP V12.0
#
DISCID=860aaf0b
DTITLE=Snyder Family Band - Wherever I Wander
DYEAR=2015
DGENRE=Country
TTITLE0=New River Rapids
TTITLE1=Wherever I Wander
TTITLE2=After You've Gone
TTITLE3=A Whaler's Song
TTITLE4=Nantucket Sleigh Ride
TTITLE5=The Keeper
TTITLE6=The Peach Truck
TTITLE7=Swamp Music
TTITLE8=Trick Shot
TTITLE9=Hittin' the Highway
TTITLE10=Highway Call
EXTD=
EXTT0=
EXTT1=
EXTT2=
EXTT3=
EXTT4=
EXTT5=
EXTT6=
EXTT7=
EXTT8=
EXTT9=
EXTT10=
PLAYORDER=
